<svg width="15" height="13" viewBox="0 0 15 13" fill="none" xmlns="http://www.w3.org/2000/svg">
<path d="M4.61905 4.96833C4.61905 5.23744 4.40089 5.4556 4.13178 5.4556C3.86266 5.4556 3.6445 5.23744 3.6445 4.96833C3.6445 4.69921 3.86266 4.48106 4.13178 4.48106C4.40089 4.48106 4.61905 4.69921 4.61905 4.96833Z" fill="white"/>
<path d="M7.0554 4.96833C7.0554 5.23744 6.83724 5.4556 6.56813 5.4556C6.29902 5.4556 6.08086 5.23744 6.08086 4.96833C6.08086 4.69921 6.29902 4.48106 6.56813 4.48106C6.83724 4.48106 7.0554 4.69921 7.0554 4.96833Z" fill="white"/>
<path d="M7.88782 4.96833C7.88782 4.75528 8.06053 4.58257 8.27358 4.58257H11.1972C11.4103 4.58257 11.583 4.75528 11.583 4.96833C11.583 5.18137 11.4103 5.35408 11.1972 5.35408H8.27358C8.06053 5.35408 7.88782 5.18137 7.88782 4.96833Z" fill="white"/>
<path d="M3.25875 8.62286C3.25875 8.40981 3.43146 8.23711 3.6445 8.23711H11.4408C11.6539 8.23711 11.8266 8.40981 11.8266 8.62286C11.8266 8.83591 11.6539 9.00862 11.4408 9.00862H3.6445C3.43146 9.00862 3.25875 8.83591 3.25875 8.62286Z" fill="white"/>
<path fill-rule="evenodd" clip-rule="evenodd" d="M0.720886 3.50651C0.720886 1.89184 2.02984 0.582886 3.64451 0.582886H11.4409C13.0555 0.582886 14.3645 1.89184 14.3645 3.50651V9.35377C14.3645 10.9684 13.0555 12.2774 11.4409 12.2774H3.64451C2.02984 12.2774 0.720886 10.9684 0.720886 9.35377V3.50651ZM3.64451 1.55743H11.4409C12.5173 1.55743 13.3899 2.43006 13.3899 3.50651V9.35377C13.3899 10.4302 12.5173 11.3029 11.4409 11.3029H3.64451C2.56806 11.3029 1.69543 10.4302 1.69543 9.35377V3.50651C1.69543 2.43006 2.56806 1.55743 3.64451 1.55743Z" fill="white"/>
</svg>
