<svg width="19" height="19" viewBox="0 0 19 19" fill="none" xmlns="http://www.w3.org/2000/svg">
<path fill-rule="evenodd" clip-rule="evenodd" d="M6.92666 9.72714C6.92666 10.4448 6.3449 11.0265 5.62727 11.0265C4.90964 11.0265 4.32788 10.4448 4.32788 9.72714C4.32788 9.00951 4.90964 8.42775 5.62727 8.42775C6.3449 8.42775 6.92666 9.00951 6.92666 9.72714ZM5.62727 10.3768C5.98609 10.3768 6.27697 10.086 6.27697 9.72714C6.27697 9.36832 5.98609 9.07744 5.62727 9.07744C5.26845 9.07744 4.97758 9.36832 4.97758 9.72714C4.97758 10.086 5.26845 10.3768 5.62727 10.3768ZM10.8248 9.72714C10.8248 10.4448 10.2431 11.0265 9.52544 11.0265C8.8078 11.0265 8.22605 10.4448 8.22605 9.72714C8.22605 9.00951 8.8078 8.42775 9.52544 8.42775C10.2431 8.42775 10.8248 9.00951 10.8248 9.72714ZM9.52544 10.3768C9.88425 10.3768 10.1751 10.086 10.1751 9.72714C10.1751 9.36832 9.88425 9.07744 9.52544 9.07744C9.16662 9.07744 8.87574 9.36832 8.87574 9.72714C8.87574 10.086 9.16662 10.3768 9.52544 10.3768ZM13.4236 11.0265C14.1412 11.0265 14.723 10.4448 14.723 9.72714C14.723 9.00951 14.1412 8.42775 13.4236 8.42775C12.706 8.42775 12.1242 9.00951 12.1242 9.72714C12.1242 10.4448 12.706 11.0265 13.4236 11.0265ZM14.0733 9.72714C14.0733 10.086 13.7824 10.3768 13.4236 10.3768C13.0648 10.3768 12.7739 10.086 12.7739 9.72714C12.7739 9.36832 13.0648 9.07744 13.4236 9.07744C13.7824 9.07744 14.0733 9.36832 14.0733 9.72714Z" fill="white"/>
</svg>
