<svg width="12" height="12" viewBox="0 0 12 12" fill="none" xmlns="http://www.w3.org/2000/svg">
<path d="M1.58578 1.34425C1.43688 1.19535 1.19546 1.19535 1.04656 1.34425C0.897658 1.49315 0.897658 1.73457 1.04656 1.88347L5.59322 6.43014L1.04656 10.9768C0.897658 11.1257 0.897658 11.3671 1.04656 11.516C1.19546 11.6649 1.43688 11.6649 1.58578 11.516L6.13244 6.96936L10.6791 11.516C10.828 11.6649 11.0694 11.6649 11.2183 11.516C11.3672 11.3671 11.3672 11.1257 11.2183 10.9768L6.67167 6.43014L11.2183 1.88347C11.3672 1.73457 11.3672 1.49315 11.2183 1.34425C11.0694 1.19535 10.828 1.19535 10.6791 1.34425L6.13244 5.89091L1.58578 1.34425Z" fill="white" stroke="white" stroke-width="0.649695" stroke-linecap="round"/>
</svg>
