<svg width="21" height="23" viewBox="0 0 21 23" fill="none" xmlns="http://www.w3.org/2000/svg">
<path fill-rule="evenodd" clip-rule="evenodd" d="M10.5454 0.792664C6.93005 0.792664 3.99923 3.72348 3.99923 7.33883V12.4823C3.99923 16.0976 6.93005 19.0284 10.5454 19.0284C14.1607 19.0284 17.0916 16.0976 17.0916 12.4823V7.33883C17.0916 3.72348 14.1607 0.792664 10.5454 0.792664ZM7.91668 7.0527C9.04025 6.59382 9.83721 6.39779 10.594 6.40381C11.3514 6.4098 12.1146 6.61842 13.1736 7.05247C13.4125 7.15042 13.6856 7.03612 13.7835 6.79716C13.8815 6.55823 13.7672 6.28512 13.5282 6.18717C12.4291 5.73662 11.5356 5.47609 10.6014 5.46867C9.66658 5.46125 8.73708 5.70751 7.56311 6.18694C7.32404 6.2846 7.20938 6.55755 7.30702 6.79662C7.40465 7.03569 7.67761 7.15033 7.91668 7.0527ZM8.85573 8.70525C9.59619 8.39506 10.1039 8.27023 10.5765 8.27409C11.0497 8.27794 11.5353 8.41105 12.2345 8.70503C12.4725 8.80511 12.7467 8.6933 12.8468 8.45522C12.9469 8.21718 12.835 7.94306 12.597 7.84298C11.8574 7.53199 11.2385 7.34428 10.5841 7.33895C9.92889 7.33361 9.28562 7.51127 8.49439 7.84272C8.25621 7.94252 8.14401 8.21649 8.24379 8.45468C8.34357 8.69284 8.61755 8.80505 8.85573 8.70525Z" fill="white"/>
<path d="M20.3629 9.1592C20.3353 8.77283 19.9997 8.48196 19.6133 8.50956C19.2269 8.53716 18.9361 8.87278 18.9637 9.25914C19.2453 13.2017 18.2148 16.0783 16.6092 17.9594C15.0006 19.844 12.7724 20.7819 10.5454 20.7819C8.31842 20.7819 6.09018 19.844 4.48155 17.9594C2.87594 16.0783 1.8455 13.2017 2.12711 9.25914C2.15471 8.87278 1.86386 8.53716 1.47749 8.50956C1.09111 8.48196 0.755523 8.77283 0.727922 9.1592C0.425055 13.3994 1.52796 16.6598 3.41462 18.8701C5.29826 21.0768 7.92119 22.1846 10.5454 22.1846C13.1696 22.1846 15.7925 21.0768 17.6762 18.8701C19.5628 16.6598 20.6657 13.3994 20.3629 9.1592Z" fill="white"/>
</svg>
